<?xml version="1.0" encoding="UTF-8"?>
<!DOCTYPE svg PUBLIC "-//W3C//DTD SVG 1.1//EN" "http://www.w3.org/Graphics/SVG/1.1/DTD/svg11.dtd">
<!-- Creator: CorelDRAW X6 -->
<svg xmlns="http://www.w3.org/2000/svg" xml:space="preserve" width="42.3332mm" height="42.3332mm" version="1.1" style="shape-rendering:geometricPrecision; text-rendering:geometricPrecision; image-rendering:optimizeQuality; fill-rule:evenodd; clip-rule:evenodd"
viewBox="0 0 4233 4233"
 xmlns:xlink="http://www.w3.org/1999/xlink">
 <defs>
  <style type="text/css">
   <![CDATA[
    .fil0 {fill:#02BDC3}
   ]]>
  </style>
 </defs>
 <g id="Layer_x0020_1">
  <metadata id="CorelCorpID_0Corel-Layer"/>
  <g id="_200777880">
   <g id="_229162616">
    <path class="fil0" d="M4088 1716l-3925 0c-29,0 -52,-13 -52,-42l0 -1503c0,-23 19,-42 42,-42l3930 0c32,0 52,18 52,47l0 1493c0,26 -21,47 -47,47l0 0zm-3996 -1554l0 1521c0,26 31,52 56,52l3949 0c28,0 56,-28 56,-56l0 -1512c0,-28 -28,-56 -56,-56l-3944 0c-31,0 -61,22 -61,52l0 0 0 -1z"/>
    <path class="fil0" d="M3407 58l756 0c23,0 38,15 38,38l0 1648c0,25 -17,42 -42,42l-751 0 0 33 751 0c42,0 75,-33 75,-75l0 -1653c0,-29 -27,-66 -71,-66l-756 0 0 33 0 0 0 0z"/>
    <path class="fil0" d="M826 58l-756 0c-23,0 -38,15 -38,38l0 1648c0,25 17,42 42,42l751 0 0 33 -751 0c-42,0 -75,-33 -75,-75l0 -1653c0,-29 27,-66 71,-66l756 0 0 33 0 0 0 0z"/>
   </g>
  </g>
 </g>
</svg>
