<?xml version="1.0" encoding="UTF-8"?>
<!DOCTYPE svg PUBLIC "-//W3C//DTD SVG 1.1//EN" "http://www.w3.org/Graphics/SVG/1.1/DTD/svg11.dtd">
<!-- Creator: CorelDRAW X6 -->
<svg xmlns="http://www.w3.org/2000/svg" xml:space="preserve" width="42.3332mm" height="42.3332mm" version="1.1" style="shape-rendering:geometricPrecision; text-rendering:geometricPrecision; image-rendering:optimizeQuality; fill-rule:evenodd; clip-rule:evenodd"
viewBox="0 0 4233 4233"
 xmlns:xlink="http://www.w3.org/1999/xlink">
 <defs>
  <style type="text/css">
   <![CDATA[
    .fil0 {fill:#00203F}
   ]]>
  </style>
 </defs>
 <g id="Layer_x0020_1">
  <metadata id="CorelCorpID_0Corel-Layer"/>
  <g id="_628383760">
   <path class="fil0" d="M295 3321c-69,0 -95,-21 -131,-29 0,169 0,338 0,508 0,93 -7,163 32,222 29,45 95,97 164,97l3503 0c100,0 195,-79 203,-181 7,-83 0,-545 0,-653 -40,3 -5,-2 -33,11 -87,39 -159,30 -243,-18 -100,-58 -228,-246 -319,-246 -32,0 -91,51 -111,71 -178,180 -341,339 -584,94 -93,-94 -183,-211 -275,-141 -9,7 -13,13 -23,21 -64,52 -99,95 -169,157 -21,19 -28,24 -53,41 -93,61 -196,63 -287,6 -223,-140 -248,-352 -432,-181 -62,58 -127,136 -198,179 -87,54 -194,59 -284,2 -115,-73 -245,-248 -310,-248 -120,0 -262,290 -450,290l0 -2z"/>
   <path class="fil0" d="M164 2668l0 406c0,19 20,29 46,49 101,79 167,-11 286,-130 180,-181 321,-156 486,-4l79 81c129,130 165,90 261,8l65 -58c218,-235 355,-186 560,20 17,17 30,30 47,47 17,17 31,29 51,44 103,75 182,-55 278,-139 62,-54 133,-127 242,-127 47,0 106,25 138,43l197 173c62,53 127,129 233,11 52,-58 133,-133 199,-178 140,-95 295,-30 384,76 31,37 46,43 81,78 39,39 88,86 146,86 30,0 123,-61 123,-87l0 -413c0,-94 -95,-189 -189,-189l-3503 0c-83,0 -132,27 -171,83 -7,10 -3,4 -9,13 -17,30 -31,66 -31,107l1 0z"/>
   <path class="fil0" d="M745 1812c0,94 -13,387 16,448 42,88 109,89 194,89l2350 0c77,0 118,3 169,-27 35,-21 71,-72 71,-125l0 -384c-85,0 -115,33 -228,-41 -52,-34 -176,-168 -231,-204 -101,-68 -174,36 -265,124 -10,10 -13,12 -23,20l-34 31c-116,98 -229,106 -349,10l-160 -145c-164,-165 -242,47 -407,163 -105,73 -218,65 -313,-15 -1,-1 -3,-2 -4,-3l-103 -100c-15,-17 -122,-107 -154,-107 -45,0 -75,21 -106,47 -12,10 -16,13 -28,23l-77 75c-40,47 -94,84 -150,111 -85,42 -112,13 -169,12l1 -2z"/>
   <path class="fil0" d="M745 1660c39,10 26,29 87,29 167,0 295,-466 620,-192 188,159 205,268 369,129 107,-91 194,-216 324,-216 196,0 294,279 450,279 107,0 246,-279 428,-279 183,0 316,279 435,279 50,0 55,-20 87,-29 0,-131 -1,-261 0,-392 1,-129 -43,-210 -189,-210l-2422 0c-71,0 -107,16 -144,52 -41,41 -45,72 -45,151 1,133 0,266 0,399l0 0z"/>
   <path class="fil0" d="M2602 572l0 370c0,48 106,29 210,29 20,0 20,-3 36,-7l0 -326c1,-108 37,-87 -225,-87 -17,0 -22,5 -22,22l1 -1z"/>
   <path class="fil0" d="M1442 963c65,15 149,7 218,7 17,0 29,-12 29,-29l0 -370c0,-17 -5,-22 -22,-22 -262,0 -226,-21 -225,87l0 326 0 1z"/>
   <path class="fil0" d="M2022 572l0 370c0,17 12,29 29,29l189 0c17,0 29,-12 29,-29l0 -370c0,-17 -5,-22 -22,-22l-203 0c-17,0 -22,5 -22,22l0 0z"/>
   <path class="fil0" d="M2630 435c65,83 226,36 226,-60 0,-163 -70,-157 -116,-261 -80,49 -179,233 -110,321z"/>
   <path class="fil0" d="M1435 347c0,164 261,189 261,-7 0,-62 -104,-218 -131,-218 -24,0 -34,38 -59,72l-18 26c-19,33 -54,82 -54,127l1 0z"/>
   <path class="fil0" d="M2008 340c0,21 4,36 11,55l21 36c91,102 229,21 229,-54 0,-156 -97,-190 -116,-261 -34,3 -11,-5 -30,14l-55 83c-8,11 -13,17 -18,25 -11,17 -43,81 -43,102l1 0z"/>
  </g>
 </g>
</svg>
