<?xml version="1.0" encoding="UTF-8"?>
<!DOCTYPE svg PUBLIC "-//W3C//DTD SVG 1.1//EN" "http://www.w3.org/Graphics/SVG/1.1/DTD/svg11.dtd">
<!-- Creator: CorelDRAW X6 -->
<svg xmlns="http://www.w3.org/2000/svg" xml:space="preserve" width="42.3332mm" height="42.3332mm" version="1.1" style="shape-rendering:geometricPrecision; text-rendering:geometricPrecision; image-rendering:optimizeQuality; fill-rule:evenodd; clip-rule:evenodd"
viewBox="0 0 4233 4233"
 xmlns:xlink="http://www.w3.org/1999/xlink">
 <defs>
  <style type="text/css">
   <![CDATA[
    .fil1 {fill:#C64C3C}
    .fil0 {fill:#DF5644}
    .fil2 {fill:#FEFEFE}
   ]]>
  </style>
 </defs>
 <g id="Layer_x0020_1">
  <metadata id="CorelCorpID_0Corel-Layer"/>
  <g id="_628398736">
   <path class="fil0" d="M641 3639l3014 -2976c-28,-44 -86,-83 -134,-131 -113,-113 -354,-258 -486,-324 -248,-125 -549,-196 -852,-207l-151 0c-122,4 -243,18 -359,43 -404,87 -763,284 -1046,566 -24,24 -42,42 -66,66 -134,132 -303,397 -376,567 -134,312 -184,526 -184,891 0,251 36,471 115,687 42,116 108,263 171,366 108,179 205,305 355,451l-1 1z"/>
   <path class="fil1" d="M641 3639c576,587 1495,744 2255,449 37,-14 57,-26 92,-40 68,-28 112,-55 170,-86 28,-15 56,-32 83,-50l79 -53c204,-142 381,-314 524,-518 96,-135 211,-347 266,-512 75,-226 116,-444 123,-658l0 -130c-8,-250 -63,-497 -166,-751 -66,-163 -181,-351 -289,-488 -22,-27 -102,-127 -123,-141l-3014 2976 0 2z"/>
   <g id="_219029864">
    <path class="fil2" d="M3424 1240c-31,7 -134,60 -163,77l-116 66c-144,86 -192,125 -330,219l-68 50c-88,67 -280,220 -366,300l-157 147c-25,20 -40,37 -63,59l-473 497 -219 266c-18,24 -35,44 -53,69 -11,15 -47,58 -50,72 -12,-9 -265,-414 -299,-471 -24,-40 -50,-78 -73,-118 -24,-41 -49,-76 -102,-89 -49,-12 -308,-4 -384,-4 4,15 23,43 33,60l185 295c118,193 256,401 370,591 65,109 124,93 289,93 202,0 199,29 260,-73l92 -148c13,-20 23,-39 35,-58l114 -175c27,-40 52,-77 78,-118l238 -335c28,-38 53,-71 82,-109l168 -214c14,-18 27,-32 42,-51l45 -53c10,-13 13,-15 23,-26 48,-54 78,-97 135,-154l184 -199 245 -230 298 -236 0 0z"/>
    <polygon class="fil2" points="3434,1235 3439,1235 3435,1230 "/>
    <polygon class="fil2" points="3434,1235 3424,1240 "/>
   </g>
  </g>
 </g>
</svg>
