<?xml version="1.0" encoding="UTF-8"?>
<!DOCTYPE svg PUBLIC "-//W3C//DTD SVG 1.1//EN" "http://www.w3.org/Graphics/SVG/1.1/DTD/svg11.dtd">
<!-- Creator: CorelDRAW X6 -->
<svg xmlns="http://www.w3.org/2000/svg" xml:space="preserve" width="42.3332mm" height="42.3332mm" version="1.1" style="shape-rendering:geometricPrecision; text-rendering:geometricPrecision; image-rendering:optimizeQuality; fill-rule:evenodd; clip-rule:evenodd"
viewBox="0 0 4233 4233"
 xmlns:xlink="http://www.w3.org/1999/xlink">
 <defs>
  <style type="text/css">
   <![CDATA[
    .fil1 {fill:#C64C3C}
    .fil0 {fill:#DF5644}
    .fil2 {fill:#FEFEFE}
   ]]>
  </style>
 </defs>
 <g id="Layer_x0020_1">
  <metadata id="CorelCorpID_0Corel-Layer"/>
  <g id="_628693672">
   <path class="fil0" d="M641 3639l3014 -2976c-28,-44 -86,-83 -134,-131 -113,-113 -354,-258 -486,-324 -248,-125 -549,-196 -852,-207l-151 0c-122,4 -243,18 -359,43 -404,87 -763,284 -1046,566 -24,24 -42,42 -66,66 -134,132 -303,397 -376,567 -134,312 -184,526 -184,891 0,251 36,471 115,687 42,116 108,263 171,366 108,179 205,305 355,451l-1 1z"/>
   <path class="fil1" d="M641 3639c576,587 1495,744 2255,449 37,-14 57,-26 92,-40 68,-28 112,-55 170,-86 28,-15 56,-32 83,-50l79 -53c204,-142 381,-314 524,-518 96,-135 211,-347 266,-512 75,-226 116,-444 123,-658l0 -130c-8,-250 -63,-497 -166,-751 -66,-163 -181,-351 -289,-488 -22,-27 -102,-127 -123,-141l-3014 2976 0 2z"/>
   <g id="_627150448">
    <path class="fil2" d="M2214 2672c0,68 0,137 0,205 0,33 -2,55 -23,80 -45,53 -134,46 -165,-30 -5,-13 -6,-29 -6,-47 0,-70 0,-139 0,-209 -12,-6 -26,-17 -36,-27 -42,-43 -61,-81 -61,-148 0,-81 62,-156 144,-179 33,-9 78,-8 111,3 22,7 46,20 63,35 4,3 5,4 9,7 13,13 26,29 35,45 14,26 31,74 26,103 -3,21 -1,30 -10,55 -7,21 -20,46 -34,62 -5,6 -9,11 -15,17 -9,9 -27,22 -38,28l0 0zm-1071 -543l0 946c0,85 25,159 81,216 6,6 12,12 18,18l20 16c7,5 15,10 22,15 44,26 93,42 146,42l1369 0c23,0 45,-4 63,-8 21,-5 36,-11 54,-18 22,-9 47,-26 66,-41 15,-12 23,-22 36,-36l16 -20c31,-45 54,-102 54,-163l0 -984c0,-84 -42,-158 -84,-200 -19,-19 -36,-33 -60,-46 -37,-22 -89,-41 -139,-41l-1384 0c-41,0 -89,15 -117,29 -43,22 -61,39 -92,71 -16,16 -42,59 -49,79 -15,39 -23,72 -23,125l3 0z"/>
    <path class="fil2" d="M1435 1621l0 108 289 0c8,0 5,-12 5,-26 0,-68 -2,-140 8,-205 15,-89 43,-172 98,-238 3,-3 4,-4 7,-8 16,-20 52,-49 76,-62 61,-34 125,-46 200,-46 87,0 154,16 215,54 40,25 81,72 103,113 7,13 12,22 18,36 56,124 51,244 51,381l292 0c0,-168 4,-268 -50,-430 -10,-29 -25,-65 -39,-93 -9,-18 -21,-41 -32,-57 -18,-27 -43,-65 -65,-89l-32 -34c-31,-30 -91,-75 -127,-93 -28,-14 -44,-23 -75,-35 -69,-27 -163,-47 -241,-47 -77,0 -123,3 -199,21 -84,21 -199,74 -265,137 -5,4 -7,6 -12,10 -22,22 -35,34 -55,58 -106,126 -171,311 -171,543l1 2z"/>
   </g>
  </g>
 </g>
</svg>
