<?xml version="1.0" encoding="UTF-8"?>
<!DOCTYPE svg PUBLIC "-//W3C//DTD SVG 1.1//EN" "http://www.w3.org/Graphics/SVG/1.1/DTD/svg11.dtd">
<!-- Creator: CorelDRAW X6 -->
<svg xmlns="http://www.w3.org/2000/svg" xml:space="preserve" width="42.3332mm" height="42.3332mm" version="1.1" style="shape-rendering:geometricPrecision; text-rendering:geometricPrecision; image-rendering:optimizeQuality; fill-rule:evenodd; clip-rule:evenodd"
viewBox="0 0 4233 4233"
 xmlns:xlink="http://www.w3.org/1999/xlink">
 <defs>
  <style type="text/css">
   <![CDATA[
    .fil0 {fill:#00203F}
   ]]>
  </style>
 </defs>
 <g id="Layer_x0020_1">
  <metadata id="CorelCorpID_0Corel-Layer"/>
  <g id="_626740080">
   <g id="_219023408">
    <path class="fil0" d="M107 3979c14,7 29,16 49,16l3920 0c20,0 35,-9 49,-16 -11,-17 -1140,-852 -1349,-1008 -31,-24 -60,-47 -92,-68l-204 160c-23,19 -46,34 -69,54l-206 159c-53,40 -125,42 -178,2l-481 -374 -1350 1007c-18,13 -82,57 -90,70l1 -2 0 0z"/>
    <path class="fil0" d="M107 1683c7,10 32,26 46,36l384 283c16,12 33,25 49,37 17,12 30,22 47,35l243 178c0,-75 -5,-1347 2,-1389 10,-54 48,-92 108,-92l2259 0c142,0 110,172 110,286l0 1195c71,-48 261,-191 335,-246 17,-13 33,-24 50,-36l337 -248c14,-10 42,-29 48,-38 -148,-99 -342,-257 -495,-364 -21,-15 -41,-30 -61,-45 -117,-88 -94,-30 -94,-229 0,-68 6,-147 -5,-208 -21,-121 -118,-185 -245,-185 -148,0 -340,4 -483,0 -28,-1 -69,-38 -101,-62l-431 -318c-59,-44 -126,-47 -185,-2l-433 320c-20,15 -74,61 -97,62l-270 0c-71,0 -142,0 -213,0 -108,0 -166,28 -219,105 -50,73 -35,195 -35,288 0,35 0,71 0,106 0,60 7,49 -30,76l-125 92c-21,14 -40,30 -61,46l-370 272c-23,17 -41,31 -64,46l-1 -1 0 0z"/>
    <path class="fil0" d="M2767 2846c14,9 28,21 42,32 16,12 29,22 44,33l959 715c59,44 115,85 174,129l177 130 0 -2124c-66,44 -273,213 -348,270 -60,45 -116,91 -175,136l-348 270c-22,18 -509,388 -523,410l-2 -1 0 0z"/>
    <path class="fil0" d="M70 3885c59,-40 116,-85 174,-129l610 -454c30,-23 56,-42 87,-65l481 -358c15,-11 30,-24 44,-33 -10,-15 -24,-23 -39,-34l-569 -441c-31,-23 -57,-45 -88,-68 -126,-94 -264,-205 -392,-303 -8,-6 -13,-10 -20,-16 -63,-48 -234,-186 -287,-221l0 2124 -1 -2 0 0z"/>
    <path class="fil0" d="M1883 1986c0,-104 36,-219 109,-283 131,-116 324,21 199,297 -12,27 -22,42 -39,63 -118,149 -270,84 -270,-77l1 0 0 0zm-401 -70c0,81 -3,117 18,199 6,22 9,37 16,57 32,92 57,121 112,187 104,125 316,195 484,195 182,0 266,-3 428,-91 60,-32 130,-94 170,-149 78,-106 43,-83 -95,-83 -9,0 -3,-5 -19,17 -86,120 -269,179 -418,179 -166,0 -319,-33 -418,-122 -13,-11 -21,-15 -33,-29l-28 -34c-135,-188 -111,-493 26,-658 50,-61 108,-115 183,-145 93,-38 136,-49 250,-49 122,0 231,51 299,106 36,29 67,67 91,110 86,153 42,377 -98,482 -20,15 -66,47 -96,47 -48,0 -21,-72 -17,-94l91 -428c16,-76 32,-62 -124,-62 -18,0 -21,44 -29,78 -165,-189 -392,-69 -483,106 -50,96 -61,144 -61,254 0,102 59,209 143,258 71,41 146,34 216,-1 49,-24 57,-43 83,-60 17,73 71,90 143,90 203,0 401,-248 401,-454 0,-101 -5,-180 -56,-271 -116,-208 -299,-285 -537,-285 -106,0 -191,24 -268,56 -61,25 -121,69 -169,113l-37 41c-7,8 -11,14 -18,23 -12,15 -23,31 -34,48 -38,62 -27,45 -57,107 -33,68 -60,188 -60,263l1 -1 0 0z"/>
   </g>
  </g>
 </g>
</svg>
