<?xml version="1.0" encoding="UTF-8"?>
<!DOCTYPE svg PUBLIC "-//W3C//DTD SVG 1.1//EN" "http://www.w3.org/Graphics/SVG/1.1/DTD/svg11.dtd">
<!-- Creator: CorelDRAW X6 -->
<svg xmlns="http://www.w3.org/2000/svg" xml:space="preserve" width="42.3332mm" height="42.3332mm" version="1.1" style="shape-rendering:geometricPrecision; text-rendering:geometricPrecision; image-rendering:optimizeQuality; fill-rule:evenodd; clip-rule:evenodd"
viewBox="0 0 4233 4233"
 xmlns:xlink="http://www.w3.org/1999/xlink">
 <defs>
  <style type="text/css">
   <![CDATA[
    .fil0 {fill:black}
    .fil1 {fill:#040505}
    .fil2 {fill:#080808}
   ]]>
  </style>
 </defs>
 <g id="Layer_x0020_1">
  <metadata id="CorelCorpID_0Corel-Layer"/>
  <g id="_226916640">
   <g id="_211077832">
    <path class="fil0" d="M1933 2484l33 -47c1,-1 3,-3 3,-4l15 -20c4,-8 3,-1 5,-15 76,0 112,15 83,-111 -84,-20 -359,-7 -471,-7 -25,29 -19,12 -19,83 -31,54 -186,87 -269,74 -236,-36 -414,-304 -474,-545 -99,-399 40,-806 236,-1053 178,-226 506,-442 942,-400 391,36 660,297 818,541 171,266 294,691 203,1088 -84,368 -290,665 -491,866 -527,526 -893,458 -1086,610 -217,171 -333,376 -328,689l1284 0c-21,-242 -1,-513 170,-652 46,-36 46,-46 114,-29 162,39 430,91 585,28 62,-24 157,-126 90,-210 -68,-86 -20,-174 37,-230 31,-31 59,-48 48,-119 -8,-48 -43,-66 -95,-71 37,-16 99,-28 106,-76 8,-52 -25,-16 -29,-143 -4,-135 29,-189 122,-237 99,-52 191,-28 250,-115 60,-88 -43,-193 -83,-237 -129,-139 -270,-177 -230,-486 7,-58 24,-108 25,-165 3,-236 -39,-551 -170,-740 -155,-226 -294,-383 -555,-531 -320,-181 -837,-266 -1205,-193 -418,84 -693,317 -891,562 -228,282 -356,647 -286,1126 58,404 250,775 503,950 230,161 585,170 831,-5 147,-104 133,-131 186,-178l-7 3z"/>
    <path class="fil0" d="M1898 958c79,0 159,71 159,131 0,33 -25,12 -35,48 47,23 16,-28 153,-28 79,0 166,80 166,159 0,36 1,66 -12,99 -12,31 -23,27 -29,54 -28,-8 -29,-25 -63,-35 36,-55 39,-114 4,-170 -15,-24 -23,-37 -52,-44 -11,52 48,29 48,131 0,31 -11,50 -21,70 -37,0 -60,-8 -76,13 23,32 79,1 115,44 122,147 -8,265 -123,221 -21,-8 -28,-15 -44,-25 -91,-60 64,129 -129,182 -75,21 -112,-21 -143,-68 -102,68 -185,28 -213,-66 -33,-115 64,-103 39,-157 -48,13 -84,96 -70,159 -107,25 -185,-27 -206,-119 -23,-94 17,-129 68,-171 28,20 0,21 28,19 44,-4 -21,-15 -21,-137 0,-99 120,-232 277,-159 31,13 37,28 60,51 40,40 70,1 -40,-72 7,-82 70,-131 159,-131l1 1zm-659 430c0,438 260,408 340,734 171,0 341,0 513,0 35,-71 31,-112 86,-178 40,-48 91,-88 135,-135 213,-225 203,-600 -31,-833 -391,-388 -1041,-91 -1041,411l-1 1z"/>
    <path class="fil0" d="M2085 2260c3,0 21,27 21,-50 1,-88 -17,-56 -21,-56 -46,-12 -473,-12 -513,1 -11,31 -9,72 0,104 46,12 464,13 513,1l0 -1z"/>
    <path class="fil1" d="M1835 1111c44,0 70,-35 70,35 0,146 -228,163 -249,83 31,-1 21,-5 48,-7 -3,-24 3,-36 -56,-15 -17,7 -66,27 -42,50 25,24 -3,-5 32,5 12,4 16,12 28,20 24,17 42,24 80,24 -27,39 -48,66 -48,131 0,15 15,13 28,13 0,-60 13,-103 51,-128 23,-15 36,-21 67,-23 25,-1 27,7 36,-11 11,-20 1,1 -1,-21 -3,-16 55,-44 55,-120 0,-24 -5,-27 -7,-48 39,3 27,20 55,7 -4,-33 -27,-35 -70,-35 -31,0 -74,5 -76,41l-1 -1z"/>
    <path class="fil1" d="M1503 1366c43,-4 36,-5 52,-39 103,8 74,183 -46,211 -15,-42 -63,-79 -87,-52 -9,23 15,16 33,36 24,25 25,63 25,96 -4,43 37,9 28,-52 135,-11 159,-228 76,-249 11,-8 16,-24 17,-33 -3,-7 -16,-16 -23,-16 -25,3 -41,17 -59,33 -19,16 -29,41 -19,64z"/>
    <path class="fil1" d="M2168 1526c-44,-33 -187,-54 -211,66 -11,54 4,35 -37,60 -24,13 -33,24 -35,62 25,-3 21,-7 33,-21 48,-62 66,3 80,-29 15,-32 -17,-4 -17,-39 0,-116 177,-107 167,-66 -1,20 -9,28 25,31 7,-86 44,-50 55,-90 -29,-16 -43,-1 -63,28l3 -1z"/>
    <path class="fil2" d="M1968 1207c4,43 13,21 76,21 21,35 37,83 28,166 -39,3 -72,33 -55,70 28,-8 12,-5 27,-21 55,-63 82,33 106,9 7,-7 11,-12 -9,-33 -12,-13 -24,-16 -39,-24 8,-90 -5,-133 -35,-187 29,-7 52,-21 55,-55 -58,5 -37,46 -153,55l-1 0z"/>
    <path class="fil2" d="M1752 1665c-43,0 -75,-43 -79,-46 -19,-15 -7,-13 -31,-3 20,74 171,115 198,17 7,-24 -1,-50 4,-72 9,-44 25,-13 31,-46 5,-32 -52,-13 -59,52 -3,28 1,47 -9,67 -11,19 -28,29 -54,29l-1 0z"/>
    <path class="fil2" d="M1732 1560l28 0c11,-135 138,-104 150,-59 13,50 -21,41 16,67 86,-127 -189,-216 -194,-7l0 -1z"/>
    <path class="fil2" d="M1911 1373c-51,0 -40,-8 -70,-28l-12 15c39,60 103,62 150,4 23,-29 23,-54 23,-102 -47,4 -19,20 -32,64 -8,27 -25,46 -58,46l-1 1z"/>
   </g>
  </g>
 </g>
</svg>
