<?xml version="1.0" encoding="UTF-8"?>
<!DOCTYPE svg PUBLIC "-//W3C//DTD SVG 1.1//EN" "http://www.w3.org/Graphics/SVG/1.1/DTD/svg11.dtd">
<!-- Creator: CorelDRAW X6 -->
<svg xmlns="http://www.w3.org/2000/svg" xml:space="preserve" width="42.3332mm" height="42.3332mm" version="1.1" style="shape-rendering:geometricPrecision; text-rendering:geometricPrecision; image-rendering:optimizeQuality; fill-rule:evenodd; clip-rule:evenodd"
viewBox="0 0 4233 4233"
 xmlns:xlink="http://www.w3.org/1999/xlink">
 <defs>
  <style type="text/css">
   <![CDATA[
    .fil0 {fill:black}
   ]]>
  </style>
 </defs>
 <g id="Layer_x0020_1">
  <metadata id="CorelCorpID_0Corel-Layer"/>
  <g id="_226738248">
   <g id="_200624016">
    <path class="fil0" d="M878 3426l0 439c0,47 108,61 161,75 465,123 1026,156 1485,-25 29,-11 58,-18 58,-49l0 -535c0,-126 -58,-263 -132,-352 -29,-34 -42,-54 -75,-86 -228,-210 -511,-173 -801,-173 -287,0 -535,137 -648,402 -35,83 -48,190 -48,305l-1 0z"/>
    <path class="fil0" d="M0 2881l0 472c0,52 82,49 161,75 68,23 120,29 199,48 94,22 331,66 412,48 0,-96 1,-247 23,-320 28,-100 47,-158 106,-248 47,-70 105,-130 173,-181 34,-25 65,-47 104,-67 29,-15 97,-44 130,-52 -6,-75 -154,-105 -182,-439 -44,-4 -24,-10 -65,-10 -75,0 -114,8 -172,11 -144,9 -315,-63 -579,95 -106,63 -195,166 -245,280 -27,58 -65,206 -65,290l0 -1z"/>
    <path class="fil0" d="M2977 2141c51,70 382,81 508,573 86,334 -147,340 295,295 72,-8 254,-58 324,-83 35,-13 125,-39 125,-78 0,-397 72,-894 -411,-1088 -167,-67 -436,-47 -639,-47 -57,0 -8,63 -77,233 -49,119 -114,149 -125,196z"/>
    <path class="fil0" d="M2335 2217c0,261 -167,381 -182,439 27,6 72,24 102,37 90,35 188,123 248,191 47,54 82,105 114,175 54,121 72,220 71,358 -1,59 -16,110 33,118 62,11 403,-54 493,-85 242,-82 191,5 191,-516 0,-250 -47,-401 -233,-570 -123,-113 -311,-158 -484,-158 -63,0 -90,13 -139,11 -58,-1 -152,-24 -215,0l1 1z"/>
    <path class="fil0" d="M2249 803c0,-176 0,-266 -125,-421 -15,-19 -13,-19 -28,-37 -63,-70 -211,-153 -319,-153 -187,0 -254,-10 -411,113 -73,58 -135,138 -168,228 -168,465 285,866 702,702 143,-57 235,-149 298,-280 11,-23 49,-130 49,-154l1 3z"/>
    <path class="fil0" d="M2227 2270c0,-209 -8,-314 -195,-469l-139 -75c-153,-52 -350,-29 -472,81 -243,218 -255,526 -53,745 130,142 359,187 535,123 168,-62 324,-249 324,-405z"/>
    <path class="fil0" d="M878 2196c66,0 223,-35 254,-99 32,-66 1,-94 115,-259 85,-123 156,-76 89,-304 -28,-92 -66,-140 -134,-209 -23,-23 -32,-34 -57,-51 -158,-102 -348,-118 -514,-33 -463,237 -307,954 247,954z"/>
    <path class="fil0" d="M2870 1135c0,86 23,65 90,124 16,14 6,5 16,16 59,62 82,99 119,171 48,95 37,161 63,194 54,67 309,71 433,3 43,-24 113,-70 142,-105 49,-59 62,-75 97,-149 23,-47 48,-145 44,-209 -22,-391 -416,-588 -706,-452l-76 42c-15,10 -51,38 -66,52 -72,63 -158,218 -158,314l1 0z"/>
    <path class="fil0" d="M2055 1617c0,75 -8,73 53,118l53 43c49,52 87,109 116,172 18,39 27,48 34,94 6,34 11,77 32,97 27,27 149,53 204,53 54,0 156,-27 195,-40 166,-61 309,-255 309,-430 0,-176 -25,-266 -153,-393 -42,-42 -82,-72 -138,-97 -367,-166 -706,153 -706,385l1 0z"/>
    <path class="fil0" d="M1338 1317c13,53 48,96 68,157 23,65 23,121 38,186 66,-5 172,-102 415,-51 46,10 56,28 110,29 4,-162 97,-282 108,-321 -71,-34 -667,-34 -739,0z"/>
   </g>
  </g>
 </g>
</svg>
