<?xml version="1.0" encoding="UTF-8"?>
<!DOCTYPE svg PUBLIC "-//W3C//DTD SVG 1.1//EN" "http://www.w3.org/Graphics/SVG/1.1/DTD/svg11.dtd">
<!-- Creator: CorelDRAW X6 -->
<svg xmlns="http://www.w3.org/2000/svg" xml:space="preserve" width="42.3332mm" height="42.3332mm" version="1.1" style="shape-rendering:geometricPrecision; text-rendering:geometricPrecision; image-rendering:optimizeQuality; fill-rule:evenodd; clip-rule:evenodd"
viewBox="0 0 4233 4233"
 xmlns:xlink="http://www.w3.org/1999/xlink">
 <defs>
  <style type="text/css">
   <![CDATA[
    .fil0 {fill:black}
   ]]>
  </style>
 </defs>
 <g id="Layer_x0020_1">
  <metadata id="CorelCorpID_0Corel-Layer"/>
  <g id="_224418600">
   <g id="_206570296">
    <path class="fil0" d="M2064 3274c-62,-19 32,8 -16,-5 -69,-18 -95,-15 -171,-60 -199,-115 -265,-357 -152,-541 111,-183 252,-176 335,-208 60,-23 11,-43 38,-107 13,-32 45,-53 81,-55 98,-5 100,82 103,165 105,43 155,49 231,134 236,265 -34,507 -78,246 -13,-74 -73,-190 -154,-194l1 483c42,19 88,26 137,54 123,71 202,180 205,341 3,112 -37,197 -98,267 -66,74 -125,92 -242,121 -11,76 0,155 -106,151 -71,-3 -83,-52 -88,-95 -13,-105 -15,-30 -181,-95 -349,-135 -341,-491 -164,-402 63,32 66,284 343,268 3,-83 15,-412 -8,-461l-15 -6 0 -1zm-1120 -949c-6,-64 11,-134 -6,-195 -74,-9 -188,-3 -267,-3 -204,0 -175,-15 -169,76 35,494 82,1007 110,1496 10,171 4,329 101,433 116,126 237,98 433,98l2050 0c120,0 190,8 281,-49 68,-44 120,-117 132,-202 25,-185 37,-420 47,-614 9,-154 97,-1179 82,-1237l-426 1c-21,71 5,151 -9,224 -14,68 -78,82 -122,29 -38,-45 -62,-83 -100,-132 -29,-37 -64,-89 -96,-122l-1738 1c-45,37 -139,174 -181,228 -45,57 -115,49 -122,-30l0 -3z"/>
    <path class="fil0" d="M1548 725c10,-48 3,-100 5,-150 4,-59 23,-71 26,-121 -118,-136 -420,-365 -592,-428 -176,-64 -267,4 -362,101 -146,147 -354,432 -360,662 -3,98 20,126 107,147 57,14 169,23 228,24 174,5 334,-6 505,-15 73,-4 412,-16 449,-57 -9,-42 -1,-25 -53,-43l-200 -52c-186,-45 -854,-132 -868,-137 0,-35 -5,-29 37,-52 159,-88 360,-62 528,-33 247,44 491,141 553,151l-3 3z"/>
    <path class="fil0" d="M2689 721c55,-4 199,-60 271,-81 180,-50 412,-110 607,-92 78,8 226,38 252,98 -28,20 -699,105 -881,147l-207 54c-45,15 -43,9 -39,52 127,44 863,72 1016,57 200,-19 321,-18 253,-266 -39,-144 -103,-258 -179,-368 -66,-96 -173,-215 -261,-275 -146,-98 -277,-29 -404,45 -71,40 -445,302 -451,372 -3,21 19,76 21,112 3,47 0,97 1,144z"/>
    <path class="fil0" d="M1357 1999l1521 0c-5,-23 -592,-791 -611,-798l-315 -1 -525 688c-25,32 -68,73 -69,112l0 -1z"/>
    <path class="fil0" d="M2434 1193c5,30 538,704 640,840 45,60 62,100 105,112 -3,-82 -1,-164 -1,-246 0,-63 -21,-183 30,-212 43,-24 331,48 404,50 -14,-43 -558,-573 -615,-629 -63,-62 -45,-50 -154,-59 -329,-25 -101,-53 -281,84 -58,44 -84,33 -129,58z"/>
    <path class="fil0" d="M637 1719c508,-55 432,-204 435,397 47,-11 42,-30 103,-108 103,-131 621,-794 626,-827 -82,-26 -144,-35 -209,-152 -63,0 -126,10 -184,19 -69,10 -117,-8 -163,40l-509 512c-29,29 -89,74 -101,117l1 3z"/>
    <path class="fil0" d="M1703 657c0,415 -13,392 413,392 87,0 260,14 328,-14 121,-49 97,-185 96,-338 0,-315 -72,-263 -606,-262 -178,0 -231,40 -231,222z"/>
    <path class="fil0" d="M3258 1184c25,44 84,92 121,130 39,39 72,74 120,123 37,38 360,354 369,378 64,181 -350,-3 -565,11l6 170c161,13 460,10 625,1 218,-11 185,-234 185,-432 0,-234 21,-387 -246,-386 -180,1 -446,-16 -616,3l0 1z"/>
    <path class="fil0" d="M976 1184c-25,44 -84,92 -121,130 -39,39 -72,74 -120,123 -37,38 -360,354 -369,378 -64,181 350,-3 565,11l-6 170c-161,13 -460,10 -625,1 -218,-11 -185,-234 -185,-432 0,-234 -21,-387 246,-386 180,1 446,-16 616,3l0 1z"/>
    <path class="fil0" d="M2086 2627c-121,1 -233,103 -237,233 -4,136 107,241 238,237l-1 -469 0 -1z"/>
    <path class="fil0" d="M2279 3738c91,8 180,-76 173,-212 -6,-103 -71,-214 -173,-210l0 422z"/>
   </g>
  </g>
 </g>
</svg>
