<?xml version="1.0" encoding="UTF-8"?>
<!DOCTYPE svg PUBLIC "-//W3C//DTD SVG 1.1//EN" "http://www.w3.org/Graphics/SVG/1.1/DTD/svg11.dtd">
<!-- Creator: CorelDRAW X6 -->
<svg xmlns="http://www.w3.org/2000/svg" xml:space="preserve" width="48.768mm" height="48.768mm" version="1.1" style="shape-rendering:geometricPrecision; text-rendering:geometricPrecision; image-rendering:optimizeQuality; fill-rule:evenodd; clip-rule:evenodd"
viewBox="0 0 4877 4877"
 xmlns:xlink="http://www.w3.org/1999/xlink">
 <defs>
  <style type="text/css">
   <![CDATA[
    .fil0 {fill:white}
   ]]>
  </style>
     <clipPath id="id0">
      <path d="M128 4718c-79,-87 -128,-202 -128,-328 0,-650 0,-1300 0,-1951 0,-650 0,-1300 0,-1951 0,-126 49,-242 128,-328 89,-98 218,-159 360,-159 650,0 1301,0 1951,0 650,0 1300,0 1951,0 142,0 270,62 360,159 79,87 128,202 128,328 0,650 0,1300 0,1951 0,650 0,1300 0,1951 0,126 -49,242 -128,328 -89,98 -218,159 -360,159 -650,0 -1300,0 -1951,0 -650,0 -1301,0 -1951,0 -142,0 -270,-62 -360,-159z"/>
     </clipPath>
 </defs>
 <g id="Layer_x0020_1">
  <metadata id="CorelCorpID_0Corel-Layer"/>
  <g id="_218938520">
   <g>
    <g style="clip-path:url(#id0)">
     <image transform="matrix(1 0 0 1 -2480.38 2480.38)" x="2438" y="-2522" width="4961" height="4961" xlink:href="192 X 192_Images\192 X 192_ImgID1.png"/>
    </g>
   </g>
   <g id="_219623160">
    <path class="fil0" d="M1993 1964c-16,-694 646,-741 664,-167 23,750 -652,681 -664,167zm870 -390c-60,-28 -242,-310 -661,-225 -546,111 -809,954 134,1116 163,28 238,63 376,100 -107,-112 -176,-100 -212,-151 179,-64 277,-110 364,-264 139,-246 33,-431 31,-518 34,-19 93,-67 144,-81 86,-23 94,27 121,81 69,140 237,144 254,4 27,-222 -311,-331 -551,-63z"/>
    <path class="fil0" d="M1779 2273c-40,-54 -39,-80 -70,-126 -40,509 565,526 820,609 511,166 360,617 -56,704 -565,118 -980,-280 -731,-513 176,-165 599,-128 835,-34 70,28 118,52 166,101 25,26 19,24 48,48 -15,-214 -340,-290 -573,-327 -130,-21 -261,-25 -383,1 -253,53 -434,208 -355,461 96,307 689,366 939,343 683,-63 826,-572 475,-814 -204,-141 -426,-176 -689,-222 -202,-35 -317,-84 -426,-231z"/>
   </g>
  </g>
 </g>
</svg>
