<?xml version="1.0" encoding="UTF-8"?>
<!DOCTYPE svg PUBLIC "-//W3C//DTD SVG 1.1//EN" "http://www.w3.org/Graphics/SVG/1.1/DTD/svg11.dtd">
<!-- Creator: CorelDRAW X6 -->
<svg xmlns="http://www.w3.org/2000/svg" xml:space="preserve" width="42.3332mm" height="42.3332mm" version="1.1" style="shape-rendering:geometricPrecision; text-rendering:geometricPrecision; image-rendering:optimizeQuality; fill-rule:evenodd; clip-rule:evenodd"
viewBox="0 0 4233 4233"
 xmlns:xlink="http://www.w3.org/1999/xlink">
 <defs>
  <style type="text/css">
   <![CDATA[
    .fil0 {fill:black}
   ]]>
  </style>
 </defs>
 <g id="Layer_x0020_1">
  <metadata id="CorelCorpID_0Corel-Layer"/>
  <g id="_224893696">
   <g id="_211407368">
    <path class="fil0" d="M1755 1851c58,-1 262,-200 303,-253 73,-95 192,-95 251,26 79,159 174,234 278,344 14,15 13,20 39,20 -1,-27 -39,-67 -67,-102 -38,-51 -101,-156 -130,-213 -19,-38 -50,-77 -38,-125 76,-18 264,145 338,202l151 127c37,29 199,193 236,228l170 200c26,35 52,69 79,107 27,39 48,73 73,113 12,20 24,38 35,58 11,20 19,39 31,62 153,303 211,817 -5,1109 -98,131 -264,220 -434,220l111 -124c65,-73 142,-202 177,-291 15,-39 56,-140 56,-178l-17 0c-15,64 -124,220 -168,275 -48,59 -81,95 -137,142 -101,86 -114,95 -232,161 -140,77 -357,138 -533,138 -240,0 -387,-23 -597,-107 -120,-48 -262,-127 -364,-208 -18,-14 0,-10 -26,-12 1,40 83,124 111,157 25,30 146,114 151,121 -25,0 -59,8 -82,10 -98,10 -178,7 -274,-13 -159,-35 -295,-106 -406,-217 -249,-249 -294,-617 -184,-946 32,-98 76,-178 118,-264 20,-40 45,-82 69,-121 13,-21 24,-35 36,-56l291 -379c35,-33 59,-64 93,-98l203 -178c77,-58 145,-103 230,-152 18,-11 42,-21 62,-31 26,-11 211,-95 211,-46 0,32 -76,125 -98,152l-56 69c-29,34 -50,50 -52,79l-2 -4zm-59 -349c-11,-20 -27,-48 -27,-76 0,-106 326,-169 458,-169l82 0c165,0 448,65 409,234 -25,-6 -58,-33 -82,-44 -245,-114 -483,-77 -727,8l-113 45 0 1zm207 -371c125,0 76,5 175,27 -12,17 -58,12 -115,21 -42,7 -74,14 -113,24 -13,4 -95,37 -48,-31 18,-25 61,-42 101,-42zm709 -21c-18,0 -27,-20 -27,-38 0,-50 49,-108 71,-142 90,-134 133,-201 209,-337 14,-25 24,-49 37,-73 124,29 234,81 234,224 0,65 -105,142 -153,174 -25,17 -46,26 -73,42 -64,38 -153,73 -222,111 -15,8 -61,40 -75,40l-1 -1zm-294 49c-44,0 -115,-25 -138,-48 -44,-44 -82,-205 -98,-272 -12,-49 -20,-104 -32,-153l-17 0c0,119 -4,136 10,252 4,31 6,49 6,81 0,17 -23,50 -38,49l-142 -7 -113 -196c-119,-213 -113,-322 132,-403 231,-77 70,36 328,-174 137,-111 201,-174 382,-174 108,0 245,69 245,202 0,99 -123,314 -188,412 -36,55 -201,339 -231,369 -25,26 -62,64 -111,64l4 -1zm-752 -540c-132,2 -256,77 -256,240 0,184 261,276 409,310l0 82c-40,4 -152,75 -152,169 0,67 21,88 44,131 -39,20 -74,40 -111,64 -151,102 -228,158 -360,294 -8,8 -13,14 -21,23l-167 183c-326,385 -632,975 -403,1517 32,77 100,199 159,261 30,31 31,39 59,61l64 56c227,186 553,227 847,163 119,-26 50,-26 212,11 319,73 652,73 953,-36 52,-19 63,-33 114,-33l142 -12c83,-10 170,-36 234,-65 133,-59 240,-167 310,-289 183,-319 134,-774 5,-1100 -32,-80 -71,-152 -114,-224 -84,-140 -131,-183 -217,-295l-162 -176c-59,-59 -178,-170 -241,-221 -42,-33 -173,-149 -212,-175 37,-77 17,-192 -45,-266 -10,-12 -24,-29 -31,-39 105,-70 244,-137 360,-196 105,-54 262,-165 262,-295 0,-108 -13,-169 -100,-250 -49,-46 -124,-82 -200,-100 1,-70 49,-212 -95,-325 -96,-75 -190,-84 -314,-84 -186,0 -369,176 -509,281 -33,25 -109,34 -151,45 -137,35 -309,119 -309,290l-5 2z"/>
    <path class="fil0" d="M2386 2931c62,17 113,148 69,238 -14,29 -32,48 -58,62 0,-99 -11,-201 -11,-300zm-262 -76c39,0 65,11 98,11l17 321c-1,127 38,87 -98,87 0,-79 -6,-138 -6,-213 0,-43 -6,-62 -6,-103 0,-43 -6,-67 -6,-104l1 1zm-234 -310c0,-19 8,-52 14,-68 12,-26 20,-42 40,-48 0,73 11,149 11,218 -18,-10 -32,-20 -45,-37 -8,-11 -20,-49 -20,-67l0 1zm218 -180l87 6c0,101 17,196 17,300 -42,0 -59,-6 -99,-6l-17 -234c-1,-32 -13,-65 11,-65l1 0zm71 -289l0 93 -103 6c0,-95 -5,-137 -87,-137 -95,0 -59,106 -59,169 -251,58 -315,400 -168,550 57,57 103,80 206,88l17 278c1,33 0,70 0,104 -63,-33 -127,-87 -202,-87 -54,0 -104,56 -104,109 0,95 12,113 125,169 56,27 124,44 190,59 0,37 -4,96 0,131 10,83 128,74 149,13 11,-33 4,-84 4,-123 20,11 79,6 103,6 0,68 -17,148 71,148 13,0 40,-8 51,-14 46,-25 31,-108 31,-165 67,-6 159,-75 195,-117 126,-148 100,-365 -10,-516 -74,-102 -155,-112 -199,-134 -30,-15 -15,-43 -20,-83 -2,-24 -4,-42 -5,-71 -2,-46 -11,-98 -11,-148 19,10 45,15 68,25 20,8 48,24 69,24 64,0 174,-192 -152,-268 -25,-107 21,-163 -103,-163 -27,0 -55,27 -55,55l-1 0z"/>
   </g>
  </g>
 </g>
</svg>
