<?xml version="1.0" encoding="UTF-8"?>
<!DOCTYPE svg PUBLIC "-//W3C//DTD SVG 1.1//EN" "http://www.w3.org/Graphics/SVG/1.1/DTD/svg11.dtd">
<!-- Creator: CorelDRAW X6 -->
<svg xmlns="http://www.w3.org/2000/svg" xml:space="preserve" width="127mm" height="127mm" version="1.1" style="shape-rendering:geometricPrecision; text-rendering:geometricPrecision; image-rendering:optimizeQuality; fill-rule:evenodd; clip-rule:evenodd"
viewBox="0 0 12700 12700"
 xmlns:xlink="http://www.w3.org/1999/xlink">
 <defs>
  <style type="text/css">
   <![CDATA[
    .str0 {stroke:#003470;stroke-width:254}
    .fil0 {fill:none}
    .fil1 {fill:#186DED}
   ]]>
  </style>
 </defs>
 <g id="Layer_x0020_1">
  <metadata id="CorelCorpID_0Corel-Layer"/>
  <rect class="fil0 str0" y="1875" width="9906" height="9906" rx="991" ry="991"/>
  <path class="fil1" d="M10088 3367c566,-405 895,-618 1503,-993 195,-120 891,-507 1109,-563 -397,234 -1489,1184 -1779,1455 -241,227 -1060,1059 -1298,1340l-295 335c-62,67 -124,149 -186,221 -69,81 -121,134 -189,216l-1088 1368c-227,301 -463,615 -687,937l-674 963c-69,138 -556,835 -712,1101 -107,182 -597,1037 -741,1090 -91,45 -692,8 -849,8 -883,0 -887,71 -1267,-528 -61,-96 -310,-470 -334,-551 -90,-91 -1567,-2491 -1762,-2792 -74,-114 -204,-302 -255,-420 469,0 938,-3 1407,0 463,3 554,301 772,648l821 1310c76,119 231,339 273,456 91,66 180,331 278,402 108,-170 766,-1000 918,-1174 59,-67 274,-350 330,-371 46,-113 193,-243 279,-339l903 -985c132,-151 268,-280 409,-424 662,-673 1862,-1769 2640,-2352 161,-120 304,-239 472,-360z"/>
 </g>
</svg>
