<?xml version="1.0" encoding="UTF-8"?>
<!DOCTYPE svg PUBLIC "-//W3C//DTD SVG 1.1//EN" "http://www.w3.org/Graphics/SVG/1.1/DTD/svg11.dtd">
<!-- Creator: CorelDRAW X6 -->
<svg xmlns="http://www.w3.org/2000/svg" xml:space="preserve" width="42.3332mm" height="42.3332mm" version="1.1" style="shape-rendering:geometricPrecision; text-rendering:geometricPrecision; image-rendering:optimizeQuality; fill-rule:evenodd; clip-rule:evenodd"
viewBox="0 0 4233 4233"
 xmlns:xlink="http://www.w3.org/1999/xlink">
 <defs>
  <style type="text/css">
   <![CDATA[
    .fil0 {fill:#74C63C}
   ]]>
  </style>
 </defs>
 <g id="Layer_x0020_1">
  <metadata id="CorelCorpID_0Corel-Layer"/>
  <path class="fil0" d="M1469 537c-78,-3 -135,-34 -218,-41 -446,-33 -800,341 -772,810 5,84 37,156 38,223 -216,154 -401,308 -409,652 -8,362 174,553 370,691 8,184 -10,245 57,411 113,285 409,483 728,449 71,-7 136,-39 201,-35 92,131 86,170 241,288 296,225 705,168 948,-123 52,-62 65,-101 112,-166 65,-2 121,27 189,35 317,39 623,-159 736,-439 70,-174 53,-228 60,-421 383,-252 489,-736 240,-1091 -90,-128 -144,-162 -279,-249 2,-93 78,-233 22,-463 -85,-347 -383,-592 -742,-573 -91,5 -151,38 -231,42 -215,-530 -1016,-608 -1289,-1l-2 1zm314 2534l1367 -1367c380,-380 -45,-753 -395,-402l-1009 1015 -351 -344c-267,-262 -648,81 -365,358l753 739 0 1z"/>
 </g>
</svg>
