<?xml version="1.0" encoding="UTF-8"?>
<!DOCTYPE svg PUBLIC "-//W3C//DTD SVG 1.1//EN" "http://www.w3.org/Graphics/SVG/1.1/DTD/svg11.dtd">
<!-- Creator: CorelDRAW X6 -->
<svg xmlns="http://www.w3.org/2000/svg" xml:space="preserve" width="42.3332mm" height="42.3332mm" version="1.1" style="shape-rendering:geometricPrecision; text-rendering:geometricPrecision; image-rendering:optimizeQuality; fill-rule:evenodd; clip-rule:evenodd"
viewBox="0 0 4233 4233"
 xmlns:xlink="http://www.w3.org/1999/xlink">
 <defs>
  <style type="text/css">
   <![CDATA[
    .fil2 {fill:#3C4F90}
    .fil1 {fill:#C3C3C8}
    .fil0 {fill:#FEFEFE}
   ]]>
  </style>
 </defs>
 <g id="Layer_x0020_1">
  <metadata id="CorelCorpID_0Corel-Layer"/>
  <path class="fil0" d="M2395 3897l0 -1631 544 0 83 -631 -627 0 0 -403c0,-183 50,-307 311,-307l336 0 0 -564c-58,-8 -257,-25 -490,-25 -481,0 -813,295 -813,834l0 465 -548 0 0 631 548 0 0 1631 652 0 4 0z"/>
  <g id="_225066744">
   <path class="fil1" d="M4233 3503c0,398 -324,722 -724,722l-2786 0c-399,0 -724,-324 -724,-722l0 -2781c0,-398 324,-722 724,-722l2786 0c399,0 724,324 724,722l0 2781z"/>
   <path class="fil2" d="M4233 3503c0,398 -324,722 -724,722l-2786 0c-399,0 -724,-324 -724,-722l0 -2781c0,-398 324,-722 724,-722l2786 0c399,0 724,324 724,722l0 2781z"/>
   <path class="fil0" d="M2907 4233l0 -1631 545 0 83 -631 -628 0 0 -403c0,-183 50,-307 312,-307l337 0 0 -564c-58,-8 -258,-25 -491,-25 -482,0 -815,295 -815,834l0 465 -549 0 0 631 549 0 0 1631 653 0 4 0z"/>
  </g>
 </g>
</svg>
