<?xml version="1.0" encoding="UTF-8"?>
<!DOCTYPE svg PUBLIC "-//W3C//DTD SVG 1.1//EN" "http://www.w3.org/Graphics/SVG/1.1/DTD/svg11.dtd">
<!-- Creator: CorelDRAW X6 -->
<svg xmlns="http://www.w3.org/2000/svg" xml:space="preserve" width="42.3332mm" height="42.3332mm" version="1.1" style="shape-rendering:geometricPrecision; text-rendering:geometricPrecision; image-rendering:optimizeQuality; fill-rule:evenodd; clip-rule:evenodd"
viewBox="0 0 4233 4233"
 xmlns:xlink="http://www.w3.org/1999/xlink">
 <defs>
  <style type="text/css">
   <![CDATA[
    .fil1 {fill:#999999}
    .fil0 {fill:#EBEAEC}
    .fil2 {fill:#FEFEFE}
    .fil3 {fill:url(#id0)}
   ]]>
  </style>
  <linearGradient id="id0" gradientUnits="userSpaceOnUse" x1="-3933.49" y1="1684.28" x2="-2830.85" y2="1025.78">
   <stop offset="0" style="stop-color:#F5A249"/>
   <stop offset="0.501961" style="stop-color:#E72C74"/>
   <stop offset="1" style="stop-color:#8A388A"/>
  </linearGradient>
 </defs>
 <g id="Layer_x0020_1">
  <metadata id="CorelCorpID_0Corel-Layer"/>
  <g id="_229163216">
   <path class="fil0" d="M4233 3515c0,396 -322,718 -718,718l-2764 0c-396,0 -718,-322 -718,-718l0 -2764c0,-396 322,-718 718,-718l2764 0c396,0 718,322 718,718l0 2764z"/>
   <path class="fil0" d="M4200 3487c0,396 -322,718 -718,718l-2764 0c-396,0 -718,-322 -718,-718l0 -2764c0,-396 322,-718 718,-718l2764 0c396,0 718,322 718,718l0 2764z"/>
   <path class="fil1" d="M4200 3482c0,396 -322,718 -718,718l-2764 0c-396,0 -718,-322 -718,-718l0 -2764c0,-396 322,-718 718,-718l2764 0c396,0 718,322 718,718l0 2764z"/>
   <path class="fil2" d="M1432 677c-462,0 -838,375 -838,838l0 1180c0,462 375,838 838,838l1337 0c462,0 838,-375 838,-838l0 -1180c0,-462 -375,-838 -838,-838l-1337 0zm1337 3095l-1337 0c-594,0 -1077,-483 -1077,-1077l0 -1180c0,-594 483,-1077 1077,-1077l1337 0c594,0 1077,483 1077,1077l0 1180c0,594 -483,1077 -1077,1077z"/>
   <path class="fil2" d="M2100 1382c-396,0 -718,322 -718,718 0,396 322,718 718,718 396,0 718,-322 718,-718 0,-396 -322,-718 -718,-718zm0 1679c-528,0 -957,-429 -957,-957 0,-528 429,-957 957,-957 528,0 957,429 957,957 0,528 -429,957 -957,957z"/>
   <path class="fil2" d="M3243 1172c0,111 -91,198 -198,198 -111,0 -198,-91 -198,-198 0,-111 91,-198 198,-198 111,0 198,91 198,198z"/>
  </g>
  <path class="fil3" d="M-3722 846l680 0c93,0 169,76 169,169l0 680c0,93 -76,169 -169,169l-680 0c-93,0 -169,-76 -169,-169l0 -680c0,-93 76,-169 169,-169z"/>
  <g id="_725636184">
   <path class="fil2" d="M-3544 1009c-112,0 -203,91 -203,203l0 286c0,112 91,203 203,203l324 0c112,0 203,-91 203,-203l0 -286c0,-112 -91,-203 -203,-203l-324 0zm324 750l-324 0c-144,0 -261,-117 -261,-261l0 -286c0,-144 117,-261 261,-261l324 0c144,0 261,117 261,261l0 286c0,144 -117,261 -261,261z"/>
   <path class="fil2" d="M-3382 1181c-96,0 -174,78 -174,174 0,96 78,174 174,174 96,0 174,-78 174,-174 0,-96 -78,-174 -174,-174zm0 407c-128,0 -232,-104 -232,-232 0,-128 104,-232 232,-232 128,0 232,104 232,232 0,128 -104,232 -232,232z"/>
   <path class="fil2" d="M-3105 1130c0,27 -22,48 -48,48 -27,0 -48,-22 -48,-48 0,-27 22,-48 48,-48 27,0 48,22 48,48z"/>
  </g>
 </g>
</svg>
