<?xml version="1.0" encoding="UTF-8"?>
<!DOCTYPE svg PUBLIC "-//W3C//DTD SVG 1.1//EN" "http://www.w3.org/Graphics/SVG/1.1/DTD/svg11.dtd">
<!-- Creator: CorelDRAW X6 -->
<svg xmlns="http://www.w3.org/2000/svg" xml:space="preserve" width="127mm" height="127mm" version="1.1" style="shape-rendering:geometricPrecision; text-rendering:geometricPrecision; image-rendering:optimizeQuality; fill-rule:evenodd; clip-rule:evenodd"
viewBox="0 0 12700 12700"
 xmlns:xlink="http://www.w3.org/1999/xlink">
 <defs>
  <style type="text/css">
   <![CDATA[
    .fil0 {fill:#999999}
    .fil1 {fill:#FDFEFE}
    .fil2 {fill:white}
   ]]>
  </style>
 </defs>
 <g id="Layer_x0020_1">
  <metadata id="CorelCorpID_0Corel-Layer"/>
  <rect class="fil0" width="12700" height="12700" rx="1270" ry="1270"/>
  <g id="_404168576">
   <path class="fil1" d="M5159 9922l1588 0 0 -3126c0,-542 246,-843 794,-843 548,0 793,301 793,843l0 3126 1588 0 0 -2754c0,-1793 -308,-3005 -2185,-2782 -822,98 -812,404 -987,711l-3 -732 -1582 0 -6 5557z"/>
   <polygon class="fil2" points="2778,9922 4359,9922 4366,4366 2778,4366 "/>
   <path class="fil1" d="M3411 2403c-1066,247 -665,1775 339,1545 1010,-232 663,-1777 -339,-1545z"/>
  </g>
 </g>
</svg>
