<?xml version="1.0" encoding="UTF-8"?>
<!DOCTYPE svg PUBLIC "-//W3C//DTD SVG 1.1//EN" "http://www.w3.org/Graphics/SVG/1.1/DTD/svg11.dtd">
<!-- Creator: CorelDRAW X6 -->
<svg xmlns="http://www.w3.org/2000/svg" xml:space="preserve" width="42.3332mm" height="42.3332mm" version="1.1" style="shape-rendering:geometricPrecision; text-rendering:geometricPrecision; image-rendering:optimizeQuality; fill-rule:evenodd; clip-rule:evenodd"
viewBox="0 0 4233 4233"
 xmlns:xlink="http://www.w3.org/1999/xlink">
 <defs>
  <style type="text/css">
   <![CDATA[
    .fil1 {fill:#19B8E9}
    .fil0 {fill:#C3C3C8}
    .fil2 {fill:#FEFEFE}
   ]]>
  </style>
 </defs>
 <g id="Layer_x0020_1">
  <metadata id="CorelCorpID_0Corel-Layer"/>
  <g id="_226709640">
   <path class="fil0" d="M4233 3508c0,399 -324,723 -723,723l-2783 0c-399,0 -723,-324 -723,-723l0 -2783c0,-399 324,-723 723,-723l2783 0c399,0 723,324 723,723l0 2783z"/>
   <path class="fil1" d="M4229 3508c0,399 -324,723 -723,723l-2783 0c-399,0 -723,-324 -723,-723l0 -2783c0,-399 324,-723 723,-723l2783 0c399,0 723,324 723,723l0 2783z"/>
   <path class="fil2" d="M3594 958l0 0c0,0 0,0 0,0 0,0 0,0 0,0z"/>
   <path class="fil2" d="M3477 1257c-62,17 -116,17 -116,17l4 -12c58,-50 212,-195 228,-262 8,-29 0,-42 0,-42l-191 83 -162 75c-112,-116 -278,-191 -469,-191 -337,0 -607,237 -607,532 0,54 8,150 25,199 0,17 0,-17 0,0 -216,-4 -490,-96 -739,-220 -486,-245 -515,-415 -515,-415 -75,79 -116,349 -37,561 50,133 220,253 220,253l0 0c0,0 -75,0 -154,-25 -79,-25 -108,-54 -108,-54 -46,116 46,320 212,469 96,87 270,141 270,141l-274 8c-17,266 557,424 557,424l0 0c-166,129 -361,208 -569,208 -108,0 -212,-17 -312,-46 274,229 631,382 1014,366 1022,-54 1599,-931 1624,-1795l0 0c0,0 50,-25 150,-125 104,-104 166,-220 166,-220 0,0 -154,66 -216,83l0 -12z"/>
   <path class="fil2" d="M3594 958c0,17 0,0 0,0l0 0z"/>
  </g>
 </g>
</svg>
